<svg xmlns="http://www.w3.org/2000/svg" width="1336.888" height="458.098" viewBox="0 0 1336.888 458.098"><path d="M1336.736,72.947c-1.722-8.742-9.669-16.689-18.279-17.881-3.046-.4-6.358.4-9.272-.53a16.26,16.26,0,0,1-7.02-5.3c-4.239-5.7-7.417-12.186-11.921-17.749s-10.861-6.888-18.014-5.96c-4.371.53-9.272.662-13.246-.927-13.775-5.7-25.034-.662-36.16,6.755-2.517,1.722-5.431,3.311-7.55,5.431-3.841,3.841-7.285,3.709-12.053,1.457-8.875-4.239-13.245-1.06-14.173,8.742-.4,3.841-1.589,7.682-2.384,11.524s-2.119,7.682-1.854,11.391c.4,5.7-.265,9.4-7.153,9.4-2.252,0-5.563.265-6.755,1.722-5.7,6.888-13.378,7.417-21.325,9.272-9.8,2.252-18.809,8.212-29.537,6.623a6.5,6.5,0,0,0-3.311,1.06l-21.06,9.537a13.148,13.148,0,0,1-11.788.265c-5.431-2.252-11.921-2.517-18.014-2.782-4.9-.265-10.2,1.854-14.7.795-9.8-2.252-11.259-2.252-14.7,5.033-10.2,0-20-.265-29.67.132-1.722.132-4.239,2.517-4.768,4.239a35.527,35.527,0,0,0-.927,3.576s.53,12.451-4.636,12.451H996.2c-4.5.132-9.139.132-13.51.132h-6.358l-.53.795a23.315,23.315,0,0,0-1.854,3.046,22.076,22.076,0,0,1-3.974,5.3c-3.179,2.649-12.186,21.855-10.332,26.623a2.884,2.884,0,0,0,.662,1.06,5.25,5.25,0,0,1,1.06,2.914c-.265,1.192-2.252,2.252-4.106,3.311l-.132.132a61.127,61.127,0,0,0-6.623,4.9c-.795.662-1.457,1.192-2.252,1.854a20.354,20.354,0,0,0-1.722,1.589,9.264,9.264,0,0,1-2.252,1.854c-2.781,1.325-5.563,2.782-8.345,4.106-12.451,6.093-25.431,12.451-38.279,18.146-3.311,1.457-8.742,2.119-11.656.662-10.2-5.3-18.146-10.6-24.239-16.292-7.02-6.49-10.2-11.921-4.9-19.073.927-1.325.662-3.046.265-4.5a6.646,6.646,0,0,1-.265-1.589l-.132-1.987c-.133-3.046-.265-6.093-.133-9.007.133-3.311-3.974-8.212-6.49-10.464-2.384-2.119-4.5-3.046-6.225-2.782-3.576.53-7.285,1.192-10.729,1.854-4.106.795-8.345,1.457-12.451,1.987-2.119.265-4.636-.265-5.033-.795-.662-1.06-.662-3.709,0-6.093.265-1.06,1.987-2.252,3.179-3.179l.4-.265c1.457-1.06,2.782-2.119,4.239-3.046,6.755-4.9,13.908-10.067,18.014-18.544.927-1.987,3.311-4.106,6.888-6.093,5.96-3.179,9.934-6.225,10.6-10.2.53-3.974-2.384-7.815-6.888-12.451-6.49-6.623-7.02-9.934-2.649-17.087,4.106-6.623,9.4-13.643,18.809-16.159,4.768-1.325,9.4-3.046,13.908-4.768,1.854-.795,3.709-1.457,5.563-2.119l1.854-.662-6.755-19.6-.795-.4a48.28,48.28,0,0,0-4.636-1.854,63.11,63.11,0,0,1-9.537-4.371c-4.5-2.649-8.874-5.7-13.113-8.61-3.444-2.384-7.02-4.768-10.6-7.02-1.06-.662-4.9-2.914-8.477-2.252A79.827,79.827,0,0,0,821.621,4.2a10.616,10.616,0,0,0-5.563,4.9c-4.239,8.345-7.682,10.2-16.689,9.272a55.018,55.018,0,0,0-6.49-.4c-.927,0-1.854-.132-2.782-.132l-2.119-.132v2.119a40.1,40.1,0,0,0,.265,4.106c.132,1.325.4,3.576,0,3.974-1.589,1.854-3.047,3.841-4.371,5.7-3.974,5.431-7.682,10.6-14.305,12.716C764,48.178,758.043,50.3,752.744,53.476a83.967,83.967,0,0,0-10.066,7.682c-1.589,1.325-3.311,2.782-4.9,4.106-1.457,1.192-2.914,2.384-4.371,3.709-3.311,2.914-6.49,5.828-10.066,6.888-8.212,2.649-16.424,6.49-21.325,17.352-1.987,4.371-4.768,7.153-8.08,8.345-3.576,1.192-7.947.4-12.716-2.252a8.545,8.545,0,0,0-7.815.265c-1.987,1.325-3.709,5.166-2.782,7.55.927,2.517.662,3.311.53,3.576-.53.795-2.914,1.192-5.033,1.589-6.49,1.06-10.331.265-11.921-7.153l-.795-3.311-2.517,2.252c-1.59,1.325-3.046,2.649-4.5,3.841-3.047,2.649-5.961,5.166-8.61,7.947-2.914,3.046-5.166,1.987-9.139,0l-.927-.4A9.386,9.386,0,0,1,624,110.829a77.423,77.423,0,0,1-1.987-7.947,64.532,64.532,0,0,0-3.046-10.994c-1.722-4.239-3.444-7.153-6.093-7.55-2.782-.4-5.3,1.854-8.345,5.563-1.192,1.457-3.709,4.5-5.431,4.5h0c-.927,0-1.854-1.06-2.517-1.987l-.662-.927-1.192.132c-4.106.4-7.02,2.782-9.537,4.9-3.444,2.782-5.431,4.371-9.007,3.046-1.325-.53-2.781-.927-4.106-1.325-6.358-1.854-10.331-3.311-10.464-9.934V86.193l-2.119.132c-7.55.662-9.139-2.384-9.669-5.563-1.589-8.874-8.08-9.272-13.378-8.61l-1.589.132-.132,1.589c-.265,2.384-.795,3.841-1.854,4.636-1.06.927-2.914,1.192-5.563.927-3.576-.4-8.345,4.5-9.669,7.815-.4,1.06-1.589,4.371-2.782,4.768a2.883,2.883,0,0,1-1.987-.662l-1.06-.662-16.822,10.2.265,1.325c.4,2.517-1.722,9.139-4.371,12.716-1.325,1.722-1.987,1.854-1.987,1.854-2.119.265-4.371-.53-6.888-1.325-.662-.265-1.325-.4-1.987-.662l.4-4.239-3.179,1.589c-.4.265-.927.4-1.324.662l-3.179,1.589c-1.854,1.06-7.417,4.371-9.272,3.311-1.722-.927-2.119-7.417-2.252-9.669-.662-12.053-7.947-19.206-20.8-20.663A24.928,24.928,0,0,1,433,85.265a36.962,36.962,0,0,1-4.371-2.517,42.5,42.5,0,0,0-5.96-3.179c-2.119-.795-3.444-1.854-3.974-3.046-.4-1.06-.132-2.517.662-4.239a29.914,29.914,0,0,1,2.252-3.444c.53-.662,1.06-1.457,1.722-2.384l.927-1.325L423.2,63.94c-1.325-1.325-2.517-2.914-3.709-4.371-2.782-3.444-5.7-7.153-9.537-9.4-3.311-1.987-6.49-3.974-9.669-6.093-6.225-3.974-12.583-8.212-19.6-11.391-6.623-3.179-12.583-7.815-18.809-12.716-3.444-2.782-7.02-5.563-10.729-8.08a17.851,17.851,0,0,0-10.6-2.649c-9.272.662-18.676,1.722-27.815,2.782-2.252.265-4.5.53-6.888.795l-.795.132c-6.225.662-13.113,1.457-16.954,9.272-.662.662-3.709.927-5.3,1.192-.662.132-1.192.132-1.854.265a13.835,13.835,0,0,1-3.311,0,20.417,20.417,0,0,0-4.9.132c-3.046.662-6.093,1.589-9.007,2.384s-5.828,1.722-8.742,2.384c-2.649.53-5.431,1.06-8.08,1.589,0,0-10.067,1.854-15.1,2.649-1.325.265-3.974-.662-4.106-1.457-1.854-7.815-8.477-7.285-14.04-8.08-22.517-3.046-44.77-4.636-64.9,9.272-2.384,1.722-5.7,3.179-8.477,3.179-6.358-.265-9.537,3.444-8.874,8.61.662,5.431,2.384,11.788,5.96,15.762,9.007,10.6,10.331,16.424,3.046,28.478-6.225,10.464-3.444,17.616,8.212,20.663,2.119.53,4.5.662,6.093,1.854,3.709,2.649,9.4,5.3,10.331,9.007,2.914,12.451,5.166,25.431-4.636,36.69-3.709,4.239-6.888,9.007-4.9,15.63.53,1.589-1.457,4.9-3.179,6.225-10.331,8.08-20.928,15.63-31.392,23.709-1.457,1.06-1.854,3.576-2.782,5.431-.53,1.192-.927,3.179-1.854,3.576-6.755,2.517-8.345,7.815-8.212,14.305-12.318-3.974-12.186-3.974-15.1,8.874a69.057,69.057,0,0,1-2.782,7.153c-2.384-2.119-4.106-3.311-5.563-4.768-5.96-5.96-15.762-4.371-20,3.179-2.914,5.166-5.7,10.2-8.742,15.232a4.822,4.822,0,0,1-2.649,2.252c-8.742.53-13.643,4.371-17.484,12.848C29.94,283.55,15.5,287.126,4.111,294.014,2.389,295.073-.26,297.193,0,298.12c.53,1.987,2.649,4.768,4.239,4.9a92.413,92.413,0,0,0,18.146-.53c7.815-1.192,15.5-3.311,23.047-5.033,5.7,16.954,5.7,16.954,19.868,17.352.53,2.119.927,3.974,1.325,5.7,1.325,5.7,3.046,8.742,10.2,5.033,3.046-1.589,10.729,0,12.451,2.649,4.9,7.152,7.682,15.762,11.391,23.842a14.421,14.421,0,0,0,2.914,4.768c3.974,3.444,4.636,7.682,4.5,12.848-.132,2.914,1.192,7.285,3.311,8.477,8.477,4.768,17.484,8.61,27.418,13.245-1.06,6.225-2.252,13.775-3.709,21.458-.265,1.192-1.589,2.914-2.649,3.046-10.861,2.517-8.61,10.994-8.08,18.146.265,3.841.927,6.623-2.782,9.139-1.325.927-1.589,4.371-1.06,6.358.265.927,3.444,1.192,5.3,1.59,2.649.662,5.7.4,7.815,1.722,14.438,9.272,28.08,6.49,37.22-7.815.662-1.06,2.914-2.119,3.974-1.854,7.02,2.384,10.729-1.722,14.04-6.755,1.325-1.987,2.252-4.239,3.311-6.225.662,1.325,1.192,2.517,1.854,3.841,4.239.53,8.874,2.252,12.848,1.457,5.3-1.06,5.7-6.358,5.563-11.126a10.966,10.966,0,0,1,.662-4.239c5.7-10.464,7.682-21.723,8.61-33.643.4-5.033,3.974-10.6,7.815-14.173,1.192-1.192,8.212,3.311,12.053,5.96a44.858,44.858,0,0,0,4.239,2.517c4.9,2.517,9.4,1.457,12.981-3.046,3.841-4.768,8.477-6.623,14.7-5.828a16.659,16.659,0,0,0,11.788-3.179c4.5-3.709,8.212-8.477,11.259-12.583,3.974-5.431,8.874-12.186,4.106-20.928-1.325-2.384-2.649-5.828-1.457-8.08,1.192-2.384,5.033-3.311,8.08-3.709a194.1,194.1,0,0,0,19.206-3.311c1.06-.265,2.252-.4,3.576-.662,5.033-.795,10.331-1.722,12.053-5.3,1.854-3.709.795-8.212-.132-12.716-.4-1.59-.662-3.179-.927-4.636-.4-2.782-.132-4.636.53-5.7.795-.927,2.517-1.589,5.166-1.854a31.106,31.106,0,0,1,3.576-.132c2.914,0,5.828,0,8.477-1.325,11.656-6.093,23.842-12.848,36.16-20.4,6.755-4.106,10.994-4.371,15.63-1.192a16.943,16.943,0,0,0,6.755,2.914c6.623,1.325,9.272,5.96,12.053,13.908.795,2.384,1.325,4.768,1.854,7.02.265.927.4,1.854.662,2.649l.4,1.457,1.457.4c3.444,1.06,6.755,1.987,9.934,2.914,7.417,2.119,14.305,4.238,20.928,6.755a77.328,77.328,0,0,1,11.656,6.358c1.987,1.192,3.974,2.517,6.093,3.709a8.951,8.951,0,0,0,5.3,1.457c1.192-.132,2.384-.132,3.444-.265,3.974-.265,8.08-.53,11.921-1.854,9.669-3.311,17.749-1.192,25.431,6.755a26.479,26.479,0,0,0,2.914,2.517,12.9,12.9,0,0,1,2.782,2.517,36.674,36.674,0,0,1,5.563,8.345c1.325,2.782,2.384,5.828,3.576,8.742,1.192,3.046,2.252,6.093,3.709,9.007,1.06,2.384,4.768,4.371,7.417,3.974,2.914-.53,4.371-4.636,4.636-6.49.265-2.119.4-4.239.53-6.225a47.134,47.134,0,0,1,.795-7.682c1.457-6.755,6.49-10.994,15.365-12.981,5.3-1.192,9.934,1.06,12.981,6.093,2.649,4.371.795,6.888-2.914,11.524-.795,1.06-1.722,2.119-2.384,3.179-1.722,2.384-3.046,6.358-2.119,9.4,1.722,5.431,8.477,9.007,14.173,10.6,5.828,1.589,13.51,1.854,17.881-1.987,3.841-3.444,7.285-3.444,11.391-.132,2.384,1.854,2.119,3.046.265,7.285-.4.795-.662,1.589-1.06,2.384-1.589,4.239-3.311,10.464-2.252,16.027a76.35,76.35,0,0,0,5.033,14.305c.927,2.119,1.854,4.239,2.649,6.49,1.457,3.841,2.781,7.815,4.238,11.921.662,1.987,1.325,3.974,2.119,5.96l1.192,3.576,2.914-2.384a27.524,27.524,0,0,1,2.649-1.987,21.981,21.981,0,0,0,4.5-3.974c1.987-2.384,3.974-4.9,5.828-7.285,2.914-3.709,5.828-7.55,9.007-10.994,2.384-2.517,5.828-4.636,10.861-6.755a34.132,34.132,0,0,1,5.563-1.457,30.887,30.887,0,0,0,7.55-2.252c3.179-1.589,5.431-4.636,7.417-7.417l.795-1.06c1.457-1.854,2.649-3.841,3.974-5.828a74.065,74.065,0,0,1,4.371-6.225,8.233,8.233,0,0,1,2.252-1.589c2.119-1.192,5.431-3.311,5.3-7.815a4.409,4.409,0,0,0,.795-.4c2.649.53,4.636.265,6.225-.927,2.384-1.854,2.517-4.9,2.649-7.682a24.708,24.708,0,0,1,.53-4.239,41.434,41.434,0,0,0,.53-5.828c0-7.55,6.49-9.272,9.272-9.669,1.457-.132,5.563,4.239,7.153,5.961l.927,1.06c1.854,1.987,3.179,4.768,4.5,7.682,2.914,6.093,6.358,13.775,17.616,14.967l1.457.132,2.914-3.709c3.709-4.636,8.212-7.02,12.716-6.888,4.636.132,9.007,2.914,12.318,7.815,1.987,2.914,5.431,4.768,8.212,6.093,15.895,7.55,32.054,16.557,39.206,35.5,1.06,2.914,2.384,4.5,4.106,4.9,3.444.927,7.02,1.722,10.464,2.384,4.636,1.06,9.4,2.119,13.908,3.444,3.311.927,5.96,2.649,6.225,3.179,1.589,6.49,4.636,9.8,10.6,11.391,1.325.4,2.782,1.722,4.239,3.047a13.2,13.2,0,0,0,1.457,1.324c1.457,1.325,2.914,2.782,4.768,4.636l3.179,3.179,3.841,3.841.53-5.431c1.192-11.126,4.5-17.352,11.259-20.663,1.325-.662,3.841-.4,6.093-.265l.795.132a37.494,37.494,0,0,1,4.768.927c3.311.795,6.755,1.589,10.067.662,8.212-2.384,14.173-2.517,19.868,3.974,5.828,6.49,14.305,7.285,23.312,2.252a60.28,60.28,0,0,0,21.193-19.073,11.382,11.382,0,0,1,3.444-2.649,8.3,8.3,0,0,1,4.636,1.06c2.914,1.324,7.285.795,10.6-.265,5.7-1.722,10.861-4.636,16.424-6.755,5.7-2.119,9.272-5.166,9.272-11.921-.132-5.7,9.669-15.895,15.232-16.822,9.272-1.589,13.775-7.947,11.656-18.941,7.815-3.311,15.762-7.55,24.107-9.8,5.828-1.589,12.318-.4,15.895-7.02.4-.662,2.12-.927,3.179-.795,6.755.265,13.51.795,20.8,1.192.132,6.358,5.033,7.55,10.6,8.345,6.888,1.06,13.113.132,18.941-4.106,5.828-4.106,11.788-8.61,18.279-10.994,9.272-3.311,18.941-3.311,27.815,3.046a19.731,19.731,0,0,0,8.212,3.576c14.835,2.119,29.8,3.444,44.5,6.225,5.3,1.06,6.623-.53,8.08-4.768,2.252-6.755,4.768-13.378,7.02-20.133,1.722-5.033,3.576-10.067,4.5-15.232,1.722-9.4,3.974-18.279,10.331-25.7,2.781-3.179,5.563-6.755,6.623-10.729,2.914-10.067,4.9-20.4,7.285-30.6,1.192-4.9,3.311-9.8,3.444-14.7.53-19.338,7.417-36.955,16.689-53.114,7.417-12.848,9.139-25.3,5.7-39.207a57.742,57.742,0,0,1-1.722-14.967c.265-4.9,3.179-9.934,2.649-14.57-.795-6.888-1.59-13.113,3.841-18.676A3,3,0,0,0,1336.736,72.947ZM1331.7,74.4c-8.08,11.259-1.854,25.034-6.623,37.087-1.324,3.444-.132,8.477,1.457,12.186,4.768,11.126,1.457,21.987-.795,32.849-.4,1.589-3.974,2.649-6.093,3.709s-4.5,1.854-6.623,2.782c1.457,1.987,2.781,3.974,3.444,4.768-3.841,14.57-7.815,28.61-10.994,42.65-3.444,15.1-5.828,30.6-9.669,45.7-1.325,5.166-5.166,9.934-8.08,14.57-5.431,8.477-10.332,16.822-10.332,27.418,0,4.106-2.119,8.345-3.576,12.451-1.987,5.563-4.636,10.861-6.225,16.557-1.325,4.636-3.179,7.153-8.212,6.49-14.438-1.987-28.743-3.974-43.18-6.093a7.993,7.993,0,0,1-3.179-1.589c-12.98-9.139-26.094-9.934-39.471-.662-4.5,3.046-9.669,5.3-14.04,8.477-5.828,4.239-11.788,2.914-17.881,1.722a4.858,4.858,0,0,1-3.047-3.179c-.53-5.961-4.106-6.093-8.609-5.3-3.311.53-6.755,1.325-9.934.795-6.888-1.325-13.245-2.384-17.484,5.166a2.223,2.223,0,0,1-1.854.795c-12.186-.132-22.517,4.106-32.054,11.656-2.914,2.384-4.106,3.709-3.841,7.815.265,3.179-2.649,7.417-5.431,9.8-3.974,3.311-9.8,4.5-13.51,7.947-4.239,3.974-10.332,7.682-8.08,15.63.4,1.192-3.311,4.239-5.563,5.3a112.063,112.063,0,0,1-16.954,7.153c-2.384.795-5.7.927-7.682-.265-2.119-1.325-6.225-1.589-6.225-1.589a10.308,10.308,0,0,0-7.152,4.768,54.89,54.89,0,0,1-19.338,17.484c-3.974,2.252-11.391,5.033-16.822-1.06-8.08-9.007-16.954-7.947-25.3-5.563-1.987.53-4.636,0-7.417-.662-1.722-.4-3.576-.795-5.431-1.06l-.662-.132c-2.914-.265-6.225-.662-9.007.795-8.609,4.371-11.921,12.053-13.378,19.471-1.589-1.59-3.046-3.046-4.5-4.239-.4-.4-.927-.795-1.325-1.192-1.854-1.722-3.974-3.709-6.49-4.371-4.106-1.06-5.7-2.914-6.755-7.55-1.06-4.239-7.815-6.49-9.934-7.153-4.768-1.325-9.537-2.384-14.305-3.444-3.179-.662-6.623-1.457-9.8-2.252-.132-.265-.4-.795-.795-1.722-7.815-20.663-25.7-30.6-41.856-38.412-1.987-.927-4.768-2.384-6.093-4.371-4.239-6.358-10.2-9.934-16.424-10.2s-12.318,2.914-17.087,8.874l-1.06,1.325c-7.02-1.325-9.4-6.225-11.921-11.788-1.457-3.179-3.046-6.49-5.431-9.007l-.927-.927c-3.576-3.841-7.55-8.212-11.656-7.682-6.755.927-13.908,5.3-13.908,14.967a34.224,34.224,0,0,1-.53,5.033c-.265,1.589-.4,3.179-.53,4.9,0,1.192-.132,3.311-.53,3.576,0,0-.53.265-2.119-.132-2.384-.53-5.3,1.722-5.96,2.252a3.111,3.111,0,0,0-1.06,2.782c.4,1.854-.132,2.384-2.649,3.841a14.953,14.953,0,0,0-3.709,2.914c-1.722,2.119-3.179,4.5-4.636,6.623-1.192,1.854-2.384,3.709-3.709,5.431l-.795,1.192c-1.722,2.384-3.576,4.768-5.563,5.828a20.518,20.518,0,0,1-6.093,1.722,28.982,28.982,0,0,0-6.623,1.854c-5.7,2.517-9.669,5.033-12.583,8.08a126.113,126.113,0,0,0-9.4,11.391l-5.563,7.153a20.625,20.625,0,0,1-3.444,3.046c-.265-.927-.662-1.722-.927-2.649-1.457-4.239-2.914-8.08-4.371-12.053-.795-2.252-1.854-4.5-2.782-6.623a65.8,65.8,0,0,1-4.636-13.245c-.662-3.311,0-7.947,1.987-12.981.265-.662.662-1.457.927-2.119,1.722-3.841,3.974-9.007-1.722-13.643-6.093-4.9-12.451-4.768-18.146.4-2.252,1.987-7.417,2.384-12.981.927-5.431-1.457-9.669-4.371-10.6-7.153-.265-.795.265-3.179,1.325-4.768.662-.927,1.457-1.854,2.252-2.914,3.576-4.371,7.947-9.934,3.311-17.617-4.239-7.02-11.259-10.2-18.676-8.609-10.861,2.384-17.352,8.08-19.338,16.954a47.4,47.4,0,0,0-.927,8.477c-.133,1.987-.265,3.974-.53,5.828a5.225,5.225,0,0,1-.795,1.987,3.21,3.21,0,0,1-1.324-.795c-1.325-2.782-2.384-5.828-3.576-8.742-1.192-3.046-2.252-6.093-3.709-9.007a45.622,45.622,0,0,0-6.225-9.537,20.8,20.8,0,0,0-3.576-3.311,18.911,18.911,0,0,1-2.384-1.987c-9.139-9.537-19.338-12.186-30.994-8.212a43.279,43.279,0,0,1-10.464,1.589c-1.192.132-2.384.132-3.576.265a4.858,4.858,0,0,1-2.252-.795c-1.987-1.06-3.974-2.384-5.96-3.576a82.269,82.269,0,0,0-12.583-6.888c-6.888-2.649-13.908-4.768-21.458-6.888-2.782-.795-5.563-1.589-8.477-2.517-.132-.4-.132-.662-.265-1.06a57.983,57.983,0,0,0-1.987-7.55c-2.517-7.285-6.093-15.232-16.027-17.352a13.138,13.138,0,0,1-4.9-2.119c-8.212-5.563-15.365-2.517-21.325,1.06-12.186,7.417-24.239,14.173-35.763,20.133-2.384,1.192-6.49.53-10.331.927-4.371.53-7.153,1.722-8.874,3.841-1.722,2.252-2.252,5.166-1.589,9.669.265,1.722.662,3.444.927,5.033.795,3.444,1.589,7.153.53,9.139-.662,1.192-5.828,1.987-8.212,2.384-1.325.265-2.649.4-3.841.662q-9.338,1.987-18.676,3.179c-6.225.795-10.2,2.914-12.053,6.49-1.722,3.444-1.325,7.815,1.589,12.981,2.914,5.431.53,9.4-3.709,15.365-2.782,3.841-6.225,8.345-10.332,11.656a12.249,12.249,0,0,1-7.815,2.119c-7.947-1.06-14.438,1.589-19.471,7.815-2.384,2.914-7.682,1.325-7.682,1.325-1.06-.53-1.987-1.192-3.046-1.854-2.252-1.722-4.5-3.576-6.755-5.166a10.433,10.433,0,0,0-15.63,4.239c-2.517,5.3-3.311,11.259-4.768,16.954-1.722,7.285-3.311,14.7-5.033,22.12-1.192,4.768-2.782,9.537-3.709,14.305-1.06,5.3-4.636,7.418-8.345,3.841-5.563-5.431-9.669-2.914-12.981,1.722-3.444,4.768-6.755,8.08-13.378,6.49-1.722-.4-5.166,1.722-6.225,3.576-6.623,11.656-18.676,14.7-30.2,7.417a94.834,94.834,0,0,0-8.742-4.636c.265-2.914,1.192-6.358.795-9.669-.662-6.623-2.252-12.981,6.755-16.159,2.384-.795,3.576-6.225,4.5-9.8a108.724,108.724,0,0,0,2.782-14.57c1.192-7.815-.53-9.669-8.212-10.729-3.179-.4-6.225-1.987-9.139-3.444-4.239-2.252-8.08-4.768-10.6-6.358-4.5-12.186-8.345-23.444-12.981-34.438-2.384-5.563-5.166-11.523-9.537-15.5-5.3-4.9-12.716-5.7-20.663-2.782-.662-2.119-.662-4.5-1.854-5.96-1.987-2.252-4.9-5.828-6.888-5.431-8.477,1.325-10.464-4.106-11.788-9.934-.927-4.371-3.046-6.49-7.285-5.961-7.947,1.06-15.762,2.649-23.709,3.974-4.371.795-8.874,1.325-13.378,1.987a17.647,17.647,0,0,1-.662-2.517c5.7-2.914,12.186-4.9,17.087-9.007a94.859,94.859,0,0,0,18.544-20c2.252-3.311,3.709-5.563,7.417-5.828,6.49-.4,10.067-3.444,12.186-9.934a31.2,31.2,0,0,1,8.477-12.848c3.179-2.782,7.815-3.841,12.053.53,2.119,2.252,6.755,4.9,8.874,3.974,2.782-1.192,4.5-5.431,6.093-8.742,1.06-2.252,1.06-5.033,1.589-8.08a41.316,41.316,0,0,1,4.239,1.325c6.888,3.179,8.61,1.987,9.8-5.3.4-2.782,2.914-5.3,4.768-7.682,1.192-1.589,4.239-2.782,4.371-4.239.662-7.815,6.358-10.464,11.921-13.775,3.179-1.854,5.7-4.9,8.874-7.02,3.709-2.649,7.417-5.563,11.524-7.285,5.431-2.252,4.768-6.888,5.828-11.126,1.192-4.636,1.457-10.067,4.239-13.51,9.934-12.981,8.08-27.021,4.5-40.928-1.987-7.55-9.272-10.2-16.557-12.053-11.788-3.046-13.245-6.888-6.755-17.087,5.96-9.537,4.636-20.8-3.311-29.14-2.384-2.517-5.033-5.3-6.358-8.477-2.649-5.828-.132-9.272,6.093-10.729a30.277,30.277,0,0,0,9.669-4.239c18.941-12.848,39.869-10.994,60.8-8.345,5.033.662,9.934,1.325,12.186,7.55.53,1.457,5.431,2.119,8.212,1.854,4.768-.53,20-4.106,22.65-4.636,3.046-.662,6.093-1.589,9.007-2.384s5.828-1.722,8.742-2.384a17.635,17.635,0,0,1,3.841-.132,21.264,21.264,0,0,0,4.106,0c.53-.132,1.06-.132,1.722-.265,3.576-.4,7.153-.795,8.345-3.179,2.914-5.96,7.947-6.49,13.908-7.153l.795-.132c2.252-.265,4.5-.53,6.888-.795,9.007-1.06,18.411-2.119,27.683-2.782a12.731,12.731,0,0,1,8.08,1.987c3.576,2.384,7.02,5.166,10.464,7.947,6.093,4.9,12.451,9.8,19.471,13.245a162.065,162.065,0,0,1,19.206,11.259c3.179,1.987,6.49,4.106,9.8,6.093,3.179,1.854,5.828,5.033,8.477,8.477.927,1.192,1.854,2.252,2.782,3.444-.265.4-.53.662-.795,1.06a29.526,29.526,0,0,0-2.649,3.974c-1.325,2.782-1.589,5.3-.795,7.417.927,2.252,2.914,3.974,6.225,5.3a33.974,33.974,0,0,1,5.3,2.782c1.589.927,3.179,1.854,4.9,2.649a27.77,27.77,0,0,0,8.61,2.384c10.861,1.192,16.689,7.02,17.352,16.954.4,6.755,1.324,11.259,4.371,12.848,3.046,1.722,7.285-.132,13.113-3.444.4-.265.795-.4,1.192-.662v.662l1.722.4a31.959,31.959,0,0,1,3.311,1.06c2.782.927,5.7,1.854,8.742,1.457,1.589-.265,3.179-1.325,4.636-3.444,2.649-3.576,5.166-10.067,5.3-14.438l12.583-7.682a5.8,5.8,0,0,0,4.371.53c2.649-.927,4.106-3.974,5.3-7.153.927-2.384,4.371-5.3,5.563-5.166,3.841.4,6.49-.132,8.477-1.722a9.536,9.536,0,0,0,3.046-5.7c4.9-.265,6.755,1.192,7.55,5.563.795,4.106,3.444,8.874,11.656,8.874h.132c1.192,8.212,7.815,10.067,13.245,11.656,1.325.4,2.649.795,3.841,1.192,5.96,2.252,9.669-.927,12.98-3.709,1.987-1.722,3.974-3.311,6.358-3.841,1.457,1.722,3.046,2.649,4.768,2.649h.132c3.311,0,5.96-2.914,8.477-5.96,3.311-4.106,4.371-4.239,4.768-4.239.265,0,1.192.53,3.047,5.033a66.124,66.124,0,0,1,2.914,10.331,82.85,82.85,0,0,0,2.119,8.212,13.163,13.163,0,0,0,5.7,7.02l.795.4c3.709,1.987,8.742,4.636,13.775-.795,2.517-2.649,5.3-5.033,8.345-7.682.662-.662,1.457-1.192,2.119-1.854,3.046,7.947,9.4,8.08,15.5,7.153,3.179-.53,6.358-1.06,7.815-3.576,1.325-2.252.4-5.033-.265-7.02a4.254,4.254,0,0,1,1.325-2.914,4.759,4.759,0,0,1,3.576,0c5.7,3.179,11.259,3.974,15.895,2.517,4.5-1.457,7.947-5.033,10.464-10.464,3.974-8.874,10.464-12.451,18.941-15.232,4.371-1.457,7.947-4.636,11.523-7.815,1.325-1.192,2.782-2.384,4.106-3.576,1.722-1.325,3.444-2.782,5.033-4.239a67.531,67.531,0,0,1,9.537-7.285c4.9-3.046,10.6-5.033,16.027-6.755,7.815-2.517,12.053-8.477,16.292-14.173,1.457-1.987,2.781-3.709,4.239-5.431s1.192-4.106.927-6.888c0-.53-.132-1.06-.132-1.589h.662l6.358.4c10.729,1.06,15.762-1.589,20.663-11.391a6.336,6.336,0,0,1,3.444-2.914,77.375,77.375,0,0,1,13.245-3.841c1.457-.265,3.709.53,5.7,1.722,3.576,2.252,7.02,4.636,10.464,6.888,4.239,2.914,8.742,5.96,13.245,8.61a77.329,77.329,0,0,0,10.067,4.768c1.192.53,2.517.927,3.709,1.457l4.9,14.305c-1.325.53-2.517.927-3.841,1.457a115.945,115.945,0,0,1-13.51,4.636C857.516,49.9,851.555,57.715,847.052,65c-5.3,8.742-4.636,14.04,3.179,21.855,4.239,4.371,6.093,7.153,5.828,9.139s-2.781,4.239-8.477,7.285c-4.371,2.384-7.285,5.033-8.61,7.815-3.709,7.55-10.067,12.186-16.689,16.954-1.457,1.06-2.914,2.119-4.239,3.179l-.4.265c-1.722,1.325-3.974,2.914-4.636,5.3-.927,2.914-1.192,6.888.4,9.4s6.358,2.782,8.875,2.517c4.239-.53,8.477-1.325,12.583-2.119,3.444-.662,7.153-1.325,10.6-1.722h0c.4,0,1.854.662,3.841,2.649,2.649,2.649,4.371,5.7,4.371,6.623-.132,3.179,0,6.358.132,9.4l.132,1.987a6.728,6.728,0,0,0,.4,2.252,5.633,5.633,0,0,1,.265,1.457c-8.212,11.391,1.06,20,5.563,24.239,6.49,5.96,14.7,11.524,25.166,16.822a13.448,13.448,0,0,0,6.225,1.325,23.554,23.554,0,0,0,8.874-1.854c12.981-5.7,25.961-12.053,38.544-18.279,2.781-1.325,5.563-2.782,8.345-4.106a12.851,12.851,0,0,0,3.311-2.517,13.189,13.189,0,0,1,1.457-1.325c.795-.662,1.589-1.192,2.252-1.854a37.977,37.977,0,0,1,6.093-4.5l.132-.132c2.649-1.457,5.3-3.046,5.96-5.96.4-1.854-.132-3.841-1.722-6.093,0-.132-.133-.132-.265-.265-.53-3.311,6.755-20,9.139-22.12a22.723,22.723,0,0,0,4.9-6.358l1.192-1.987h4.106c4.371,0,9.007.132,13.643-.132h.265a25.869,25.869,0,0,0,4.5-.4,5.722,5.722,0,0,0,3.179-6.888c-.795-3.576,1.457-7.815,2.517-13.245,8.345.4,17.087-.132,25.564,1.325,9.272,1.589,9.4,2.119,10.464-6.755,0-.53,1.06-.927,1.722.4,4.106,0,8.08.132,12.186,0,9.537-.265,19.471-2.782,28.08,4.106,1.324,1.06,4.636.662,6.623-.132,9.139-3.709,17.881-10.067,27.286-11.126,12.451-1.589,23.709-7.153,35.63-8.61,7.153-.795,11.656-1.854,16.159-7.153,1.855-2.119,5.828-2.782,9.007-3.311,7.153-1.192,10.6-4.371,9.669-11.391a21.443,21.443,0,0,1,2.649-14.173c1.855-3.179,1.325-7.815,1.722-11.788.53-5.033,2.914-7.417,7.417-4.239,6.623,4.5,11.921,2.782,17.352-1.987a57.78,57.78,0,0,1,8.61-6.358c9.669-6.093,19.471-9.4,30.995-4.768,4.5,1.854,10.2.265,15.365,1.06,4.5.662,9.934,1.325,12.716,4.239a56.749,56.749,0,0,1,11.524,17.881c1.854,4.636,4.636,6.225,8.742,6.888a73.112,73.112,0,0,0,10.729.795c8.742-.132,10.861,6.888,14.04,12.716C1331.836,72.947,1331.968,74.007,1331.7,74.4Z" transform="translate(0.014 -0.109)" fill="#fe602a" opacity="0.276"/></svg>