<svg xmlns="http://www.w3.org/2000/svg" width="63.737" height="62.716" viewBox="0 0 63.737 62.716"><path d="M323.716,236.686H321.7v-15.3a3.692,3.692,0,0,1,3.684-3.684h8.239V205.944c0-2.6,1.867-4.655,5.115-5.638,2.427-.734,5.314-1.332,5.426-1.357l1.207-.249v22.03A6.385,6.385,0,0,1,339,227.1h-9.372l-1.232,9.571H326.4l1.456-11.587H339a4.361,4.361,0,0,0,4.356-4.356v-19.54c-1.058.236-2.651.622-4.057,1.045-1.382.411-3.684,1.444-3.684,3.709v13.778H325.372a1.681,1.681,0,0,0-1.68,1.68l.025,15.284Z" transform="translate(-281.661 -173.97)" fill="#fe602a"/><path d="M404.076,90.021h-5.563V86.673H395.7l2.813-6.46A5.843,5.843,0,0,1,404.35,74.6h0a5.838,5.838,0,0,1,5.837,5.837v3.485A6.127,6.127,0,0,1,404.076,90.021ZM400.517,88h3.56a4.1,4.1,0,0,0,4.095-4.095V80.425A3.83,3.83,0,0,0,404.35,76.6h0a3.83,3.83,0,0,0-3.821,3.821v.212l-1.755,4.02h1.755V88Z" transform="translate(-346.451 -65.315)" fill="#fe602a"/><path d="M23.685,236.773H21.669v-15.3a1.681,1.681,0,0,0-1.68-1.68H9.745V206.031c0-2.265-2.315-3.3-3.684-3.709-1.394-.423-2.987-.8-4.057-1.045v19.54a4.361,4.361,0,0,0,4.356,4.356H17.5l1.456,11.587H16.964l-1.232-9.571H6.372A6.366,6.366,0,0,1,0,220.83V198.8l1.207.249c.124.025,3,.622,5.427,1.357,3.248.971,5.115,3.024,5.115,5.638v11.762h8.239a3.692,3.692,0,0,1,3.684,3.684v15.284Z" transform="translate(0 -174.057)" fill="#fe602a"/><path d="M11.674,90.021H6.1a6.108,6.108,0,0,1-6.1-6.1V80.437A5.838,5.838,0,0,1,5.837,74.6h0a5.852,5.852,0,0,1,5.837,5.613l2.813,6.46H11.674ZM5.837,76.6a3.83,3.83,0,0,0-3.821,3.821V83.91A4.1,4.1,0,0,0,6.111,88h3.56V84.656h1.755l-1.755-4.02v-.212A3.849,3.849,0,0,0,5.837,76.6Z" transform="translate(0 -65.315)" fill="#fe602a"/><path d="M154.83,269.5H121.3v6.036h14.114v23.137h2.016V275.536h2v23.137h2.016V275.536h13.38Zm-2,4.02H123.3V271.5h29.51v2.016Z" transform="translate(-106.203 -235.958)" fill="#fe602a"/><path d="M126.29,10.48v-5.1h-5.638V0H97.179V5.1L92.3,11.065h4.879v4.356h4.207V13.4H99.2V9.048H96.557L99.2,5.825V2.016h19.453V5.364H102.817V20.8H126.29V16.441h4.879Zm-2.016,3.945v4.356H104.821V15.433h15.831V8.675h-2v4.742H104.833V7.381h19.453v3.809l2.639,3.224h-2.651Z" transform="translate(-80.812)" fill="#fe602a"/><path d="M215.892,213.216h-2.016V211.2h2.016Zm-5.638,0h-2.016V211.2h2.016Zm-5.638,0H202.6V211.2h2.016Z" transform="translate(-177.384 -184.914)" fill="#fe602a"/></svg>